<?xml version="1.0" encoding="UTF-8"?>
<svg width="217px" height="27px" viewBox="0 0 217 27" version="1.1" xmlns="http://www.w3.org/2000/svg" xmlns:xlink="http://www.w3.org/1999/xlink">
    <!-- Generator: Sketch 49 (51002) - http://www.bohemiancoding.com/sketch -->
    <title>isologo integrado horizontal</title>
    <desc>Created with Sketch.</desc>
    <defs></defs>
    <g id="Pruebas-logo" stroke="none" stroke-width="1" fill="none" fill-rule="evenodd">
        <g id="Artisan-Themes-Identity-Reno---Apr-2018" transform="translate(-52.000000, -268.000000)" fill="#000000">
            <g id="black">
                <g id="isologo-integrado-horizontal" transform="translate(51.941053, 267.780457)">
                    <path d="M12.312,26 L10.5068571,21.6491429 L3.93428571,21.6491429 L2.08285714,26 L0.185142857,26 L7.29,9.82314286 L14.2097143,26 L12.312,26 Z M4.60542857,20.0291429 L9.83571429,20.0291429 L7.24371429,13.85 L4.60542857,20.0291429 Z M19.9851427,10.5637143 L22.4614284,10.5637143 C23.502857,10.5637143 25.0534284,10.6331429 26.2105713,11.42 C27.1131427,12.0217143 27.8999998,13.202 27.8999998,14.8451429 C27.8999998,17.2057143 26.3494284,18.9414286 24.0119998,19.1034286 L28.9182856,26 L26.8354284,26 L22.1374284,19.2422857 L21.6977141,19.2422857 L21.6977141,26 L19.9851427,26 L19.9851427,10.5637143 Z M21.6977141,12.1837143 L21.6977141,17.7148571 L22.7854284,17.7148571 C24.9145713,17.7148571 26.1874284,16.6965714 26.1874284,14.8914286 C26.1874284,14.0351429 25.932857,13.1788571 24.960857,12.6234286 C24.2665713,12.23 23.4797141,12.1837143 22.7391427,12.1837143 L21.6977141,12.1837143 Z M42.7474282,12.1837143 L38.9982854,12.1837143 L38.9982854,26 L37.285714,26 L37.285714,12.1837143 L33.5365711,12.1837143 L33.5365711,10.5637143 L42.7474282,10.5637143 L42.7474282,12.1837143 Z M48.6617138,10.5637143 L50.3742852,10.5637143 L50.3742852,26 L48.6617138,26 L48.6617138,10.5637143 Z M66.2168565,12.716 L64.8514279,13.6185714 C64.6431422,13.202 64.2959993,12.7391429 63.9488565,12.4614286 C63.6479993,12.23 63.0925708,11.9291429 62.2131422,11.9291429 C60.6857136,11.9291429 59.6211422,12.878 59.6211422,14.3128571 C59.6211422,14.9145714 59.7831422,15.2617143 60.1997136,15.6551429 C60.6625708,16.118 61.2411422,16.3725714 61.8197136,16.6271429 L63.3008565,17.2751429 C64.2034279,17.6685714 65.0365708,18.0851429 65.6845708,18.7331429 C66.4714279,19.52 66.7954279,20.4225714 66.7954279,21.5334286 C66.7954279,24.38 64.6894279,26.2777143 61.9122851,26.2777143 C60.8939993,26.2777143 59.6211422,26.0694286 58.5565708,25.028 C57.7928565,24.2874286 57.3299993,23.2228571 57.1217136,22.2971429 L58.7879993,21.8342857 C58.9037136,22.6442857 59.2739993,23.3385714 59.7137136,23.8014286 C60.3848565,24.4725714 61.1485708,24.6577143 61.9354279,24.6577143 C64.0414279,24.6577143 65.0365708,23.1534286 65.0365708,21.6028571 C65.0365708,20.9085714 64.8282851,20.3068571 64.2728565,19.7977143 C63.8331422,19.3811429 63.2314279,19.1034286 62.4214279,18.7331429 L61.0328565,18.0851429 C60.4311422,17.8074286 59.6674279,17.4834286 58.9731422,16.8122857 C58.3019993,16.1642857 57.9085708,15.4468571 57.9085708,14.2897143 C57.9085708,11.906 59.7368565,10.3091429 62.2362851,10.3091429 C63.1851422,10.3091429 63.9488565,10.4942857 64.7125708,11.0034286 C65.3374279,11.42 65.8697136,12.0448571 66.2168565,12.716 Z M93.2502847,26 L91.5377133,26 L91.5377133,9.91571429 L103.571999,22.5285714 L103.571999,10.5637143 L105.28457,10.5637143 L105.28457,26.6942857 L93.2502847,14.0814286 L93.2502847,26 Z M129.401999,12.1837143 L125.652856,12.1837143 L125.652856,26 L123.940284,26 L123.940284,12.1837143 L120.191142,12.1837143 L120.191142,10.5637143 L129.401999,10.5637143 L129.401999,12.1837143 Z M137.028856,10.5637143 L137.028856,16.8354286 L144.943713,16.8354286 L144.943713,10.5637143 L146.656284,10.5637143 L146.656284,26 L144.943713,26 L144.943713,18.4554286 L137.028856,18.4554286 L137.028856,26 L135.316284,26 L135.316284,10.5637143 L137.028856,10.5637143 Z M162.244284,10.5637143 L162.244284,12.1837143 L155.949427,12.1837143 L155.949427,16.766 L162.059141,16.766 L162.059141,18.386 L155.949427,18.386 L155.949427,24.38 L162.244284,24.38 L162.244284,26 L154.236856,26 L154.236856,10.5637143 L162.244284,10.5637143 Z M170.218284,26 L168.459427,26 L171.028284,9.70742857 L176.952855,22.7368571 L182.993141,9.68428571 L185.399998,26 L183.641141,26 L182.183141,15.2617143 L176.929712,26.648 L171.745712,15.2617143 L170.218284,26 Z M200.571427,10.5637143 L200.571427,12.1837143 L194.276569,12.1837143 L194.276569,16.766 L200.386284,16.766 L200.386284,18.386 L194.276569,18.386 L194.276569,24.38 L200.571427,24.38 L200.571427,26 L192.563998,26 L192.563998,10.5637143 L200.571427,10.5637143 Z M215.580855,12.716 L214.215426,13.6185714 C214.007141,13.202 213.659998,12.7391429 213.312855,12.4614286 C213.011998,12.23 212.456569,11.9291429 211.577141,11.9291429 C210.049712,11.9291429 208.985141,12.878 208.985141,14.3128571 C208.985141,14.9145714 209.147141,15.2617143 209.563712,15.6551429 C210.026569,16.118 210.605141,16.3725714 211.183712,16.6271429 L212.664855,17.2751429 C213.567426,17.6685714 214.400569,18.0851429 215.048569,18.7331429 C215.835426,19.52 216.159426,20.4225714 216.159426,21.5334286 C216.159426,24.38 214.053426,26.2777143 211.276284,26.2777143 C210.257998,26.2777143 208.985141,26.0694286 207.920569,25.028 C207.156855,24.2874286 206.693998,23.2228571 206.485712,22.2971429 L208.151998,21.8342857 C208.267712,22.6442857 208.637998,23.3385714 209.077712,23.8014286 C209.748855,24.4725714 210.512569,24.6577143 211.299426,24.6577143 C213.405426,24.6577143 214.400569,23.1534286 214.400569,21.6028571 C214.400569,20.9085714 214.192284,20.3068571 213.636855,19.7977143 C213.197141,19.3811429 212.595426,19.1034286 211.785426,18.7331429 L210.396855,18.0851429 C209.795141,17.8074286 209.031426,17.4834286 208.337141,16.8122857 C207.665998,16.1642857 207.272569,15.4468571 207.272569,14.2897143 C207.272569,11.906 209.100855,10.3091429 211.600284,10.3091429 C212.549141,10.3091429 213.312855,10.4942857 214.076569,11.0034286 C214.701426,11.42 215.233712,12.0448571 215.580855,12.716 Z" id="Artisan-Themes"></path>
                    <g id="iso" transform="translate(71.489990, 0.552417)">
                        <path d="M3.94977632,21.1204552 L3.94476999,21.1204552 L2.45955992,24.6106988 L2.08837324,25.4800571 L0.188091717,25.4800571 L7.30722894,9.27068604 L14.2408512,25.4800571 L12.3933133,25.4800571 L7.28644035,13.3056368 L3.94977632,21.1204552 Z" id="Combined-Shape"></path>
                        <path d="M4.28408967,9.10858829 C3.63469302,7.7883299 4.01311082,6.20951904 5.19697361,5.29991159 C6.3808364,4.39030415 8.05725603,4.39030415 9.24111882,5.29991159 C10.4249816,6.20951904 10.8033994,7.7883299 10.1540028,9.10858829 L10.7712254,10.7403407 C11.8534322,9.55055748 12.2140065,7.90064819 11.7220956,6.38936612 C11.2301846,4.87808406 9.95727892,3.72506702 8.3653168,3.3487457 L7.94963626,3.27568215 L7.94963626,0 L6.48845618,0 L6.48845618,3.2635049 L6.07277564,3.33656844 C4.47601092,3.71074048 3.19860489,4.86605215 2.7061894,6.38137664 C2.2137739,7.89670114 2.57829016,9.55065165 3.66686705,10.7403407 L4.28408967,9.10858829 Z" id="Shape-Copy" fill-rule="nonzero"></path>
                        <path d="M0.947413764,24.1298829 L1.02023961,23.9927555 C2.72227879,20.7879016 6.00102118,18.7919571 9.56603385,18.7915307 C9.83441815,18.7915307 10.1071818,18.8037947 10.3984648,18.8297253 L10.501643,18.8389104 L11.038606,20.4574763 L10.7995653,20.4366492 C10.5925131,20.4186092 9.91393415,20.4034292 9.5661801,20.4034292 C6.58525862,20.4061916 3.84344714,22.0764966 2.41837606,24.7588944 L2.3431283,24.9005326 L0.947413764,24.1298829 Z" id="Shape" fill-rule="nonzero"></path>
                    </g>
                </g>
            </g>
        </g>
    </g>
</svg>